<?xml version="1.0" encoding="UTF-8" standalone="no"?>
<!DOCTYPE svg PUBLIC "-//W3C//DTD SVG 1.1//EN"
 "http://www.w3.org/Graphics/SVG/1.1/DTD/svg11.dtd">
<!-- Generated by graphviz version 2.44.0 (0)
 -->
<!-- Title: G Pages: 1 -->
<svg width="184pt" height="211pt"
 viewBox="0.00 0.00 184.00 211.00" xmlns="http://www.w3.org/2000/svg" xmlns:xlink="http://www.w3.org/1999/xlink">
<g id="graph0" class="graph" transform="scale(1 1) rotate(0) translate(4 207)">
<title>G</title>
<polygon fill="white" stroke="transparent" points="-4,4 -4,-207 180,-207 180,4 -4,4"/>
<text text-anchor="middle" x="88" y="-7.8" font-family="Times-Roman" font-size="14.00">A Basic Kache Netowrk</text>
<!-- HomeServer -->
<g id="node1" class="node">
<title>HomeServer</title>
<ellipse fill="none" stroke="black" cx="95.13" cy="-185" rx="69.59" ry="18"/>
<text text-anchor="middle" x="95.13" y="-181.3" font-family="Times-Roman" font-size="14.00">Home Server</text>
</g>
<!-- Device0 -->
<g id="node2" class="node">
<title>Device0</title>
<ellipse fill="none" stroke="black" cx="58.13" cy="-113" rx="46.59" ry="18"/>
<text text-anchor="middle" x="58.13" y="-109.3" font-family="Times-Roman" font-size="14.00">Device0</text>
</g>
<!-- HomeServer&#45;&#45;Device0 -->
<g id="edge1" class="edge">
<title>HomeServer&#45;&#45;Device0</title>
<path fill="none" stroke="black" d="M86.17,-167.05C80.35,-156.05 72.8,-141.76 67,-130.79"/>
</g>
<!-- Device1 -->
<g id="node3" class="node">
<title>Device1</title>
<ellipse fill="none" stroke="black" cx="95.13" cy="-41" rx="46.59" ry="18"/>
<text text-anchor="middle" x="95.13" y="-37.3" font-family="Times-Roman" font-size="14.00">Device1</text>
</g>
<!-- HomeServer&#45;&#45;Device1 -->
<g id="edge2" class="edge">
<title>HomeServer&#45;&#45;Device1</title>
<path fill="none" stroke="black" d="M103.02,-166.75C107.23,-156.58 111.98,-143.33 114.13,-131 116.87,-115.24 116.87,-110.76 114.13,-95 111.95,-82.48 107.08,-69.01 102.82,-58.78"/>
</g>
<!-- Device0&#45;&#45;Device1 -->
<g id="edge3" class="edge">
<title>Device0&#45;&#45;Device1</title>
<path fill="none" stroke="black" d="M67.08,-95.05C72.9,-84.05 80.45,-69.76 86.25,-58.79"/>
</g>
</g>
</svg>
