<?xml version="1.0" encoding="UTF-8" standalone="no"?>
<!DOCTYPE svg PUBLIC "-//W3C//DTD SVG 1.1//EN"
 "http://www.w3.org/Graphics/SVG/1.1/DTD/svg11.dtd">
<!-- Generated by graphviz version 2.44.0 (0)
 -->
<!-- Title: G Pages: 1 -->
<svg width="387pt" height="283pt"
 viewBox="0.00 0.00 387.49 283.00" xmlns="http://www.w3.org/2000/svg" xmlns:xlink="http://www.w3.org/1999/xlink">
<g id="graph0" class="graph" transform="scale(1 1) rotate(0) translate(4 279)">
<title>G</title>
<polygon fill="white" stroke="transparent" points="-4,4 -4,-279 383.49,-279 383.49,4 -4,4"/>
<text text-anchor="middle" x="189.75" y="-7.8" font-family="Times-Roman" font-size="14.00">Fediverse Classic Architure</text>
<!-- ServerA -->
<g id="node1" class="node">
<title>ServerA</title>
<ellipse fill="none" stroke="black" cx="251.25" cy="-257" rx="46.59" ry="18"/>
<text text-anchor="middle" x="251.25" y="-253.3" font-family="Times-Roman" font-size="14.00">ServerA</text>
</g>
<!-- ServerB -->
<g id="node2" class="node">
<title>ServerB</title>
<ellipse fill="none" stroke="black" cx="93.25" cy="-185" rx="46.59" ry="18"/>
<text text-anchor="middle" x="93.25" y="-181.3" font-family="Times-Roman" font-size="14.00">ServerB</text>
</g>
<!-- ServerA&#45;&#45;ServerB -->
<g id="edge1" class="edge">
<title>ServerA&#45;&#45;ServerB</title>
<path fill="none" stroke="black" d="M221.53,-242.83C193.28,-230.32 151.04,-211.6 122.83,-199.11"/>
</g>
<!-- Client0 -->
<g id="node4" class="node">
<title>Client0</title>
<ellipse fill="none" stroke="black" cx="200.25" cy="-185" rx="42.49" ry="18"/>
<text text-anchor="middle" x="200.25" y="-181.3" font-family="Times-Roman" font-size="14.00">Client0</text>
</g>
<!-- ServerA&#45;&#45;Client0 -->
<g id="edge4" class="edge">
<title>ServerA&#45;&#45;Client0</title>
<path fill="none" stroke="black" d="M239.16,-239.41C231.03,-228.25 220.36,-213.6 212.25,-202.47"/>
</g>
<!-- Client1 -->
<g id="node5" class="node">
<title>Client1</title>
<ellipse fill="none" stroke="black" cx="302.25" cy="-185" rx="42.49" ry="18"/>
<text text-anchor="middle" x="302.25" y="-181.3" font-family="Times-Roman" font-size="14.00">Client1</text>
</g>
<!-- ServerA&#45;&#45;Client1 -->
<g id="edge5" class="edge">
<title>ServerA&#45;&#45;Client1</title>
<path fill="none" stroke="black" d="M263.33,-239.41C271.46,-228.25 282.14,-213.6 290.25,-202.47"/>
</g>
<!-- ServerC -->
<g id="node3" class="node">
<title>ServerC</title>
<ellipse fill="none" stroke="black" cx="286.25" cy="-113" rx="46.59" ry="18"/>
<text text-anchor="middle" x="286.25" y="-109.3" font-family="Times-Roman" font-size="14.00">ServerC</text>
</g>
<!-- ServerB&#45;&#45;ServerC -->
<g id="edge2" class="edge">
<title>ServerB&#45;&#45;ServerC</title>
<path fill="none" stroke="black" d="M125.99,-172.13C161.48,-159.25 217.79,-138.83 253.35,-125.93"/>
</g>
<!-- Client2 -->
<g id="node6" class="node">
<title>Client2</title>
<ellipse fill="none" stroke="black" cx="42.25" cy="-113" rx="42.49" ry="18"/>
<text text-anchor="middle" x="42.25" y="-109.3" font-family="Times-Roman" font-size="14.00">Client2</text>
</g>
<!-- ServerB&#45;&#45;Client2 -->
<g id="edge6" class="edge">
<title>ServerB&#45;&#45;Client2</title>
<path fill="none" stroke="black" d="M81.16,-167.41C73.03,-156.25 62.36,-141.6 54.25,-130.47"/>
</g>
<!-- Client3 -->
<g id="node7" class="node">
<title>Client3</title>
<ellipse fill="none" stroke="black" cx="144.25" cy="-113" rx="42.49" ry="18"/>
<text text-anchor="middle" x="144.25" y="-109.3" font-family="Times-Roman" font-size="14.00">Client3</text>
</g>
<!-- ServerB&#45;&#45;Client3 -->
<g id="edge7" class="edge">
<title>ServerB&#45;&#45;Client3</title>
<path fill="none" stroke="black" d="M105.33,-167.41C113.46,-156.25 124.14,-141.6 132.25,-130.47"/>
</g>
<!-- ServerC&#45;&#45;ServerA -->
<g id="edge3" class="edge">
<title>ServerC&#45;&#45;ServerA</title>
<path fill="none" stroke="black" d="M313.54,-127.68C328.23,-136.66 344.98,-149.91 353.25,-167 360.22,-181.4 361.55,-189.32 353.25,-203 339.52,-225.6 312.68,-239 289.97,-246.68"/>
</g>
<!-- Client4 -->
<g id="node8" class="node">
<title>Client4</title>
<ellipse fill="none" stroke="black" cx="235.25" cy="-41" rx="42.49" ry="18"/>
<text text-anchor="middle" x="235.25" y="-37.3" font-family="Times-Roman" font-size="14.00">Client4</text>
</g>
<!-- ServerC&#45;&#45;Client4 -->
<g id="edge8" class="edge">
<title>ServerC&#45;&#45;Client4</title>
<path fill="none" stroke="black" d="M274.16,-95.41C266.03,-84.25 255.36,-69.6 247.25,-58.47"/>
</g>
<!-- Client5 -->
<g id="node9" class="node">
<title>Client5</title>
<ellipse fill="none" stroke="black" cx="337.25" cy="-41" rx="42.49" ry="18"/>
<text text-anchor="middle" x="337.25" y="-37.3" font-family="Times-Roman" font-size="14.00">Client5</text>
</g>
<!-- ServerC&#45;&#45;Client5 -->
<g id="edge9" class="edge">
<title>ServerC&#45;&#45;Client5</title>
<path fill="none" stroke="black" d="M298.33,-95.41C306.46,-84.25 317.14,-69.6 325.25,-58.47"/>
</g>
</g>
</svg>
